# Blender 4.2.0
# www.blender.org
mtllib crypt.mtl
o Cube
v 0.875000 0.500000 2.425000
v 0.625000 0.500000 2.425000
v 0.875000 0.500000 2.575000
v 0.625000 0.500000 2.575000
v 0.875000 4.500000 2.425000
v 0.625000 4.500000 2.425000
v 0.875000 4.500000 2.575000
v 0.625000 4.500000 2.575000
vn 1.0000 -0.0000 -0.0000
vn -0.0000 -0.0000 1.0000
vn -0.0000 1.0000 -0.0000
vn -1.0000 -0.0000 -0.0000
vn -0.0000 -1.0000 -0.0000
vn -0.0000 -0.0000 -1.0000
vt 0.625000 0.500000
vt 0.875000 0.500000
vt 0.875000 0.750000
vt 0.625000 0.750000
vt 0.375000 0.750000
vt 0.625000 1.000000
vt 0.375000 1.000000
vt 0.375000 0.000000
vt 0.625000 0.000000
vt 0.625000 0.250000
vt 0.375000 0.250000
vt 0.125000 0.500000
vt 0.375000 0.500000
vt 0.125000 0.750000
s 0
usemtl Material
f 1/1/1 5/2/1 7/3/1 3/4/1
f 4/5/2 3/4/2 7/6/2 8/7/2
f 8/8/3 7/9/3 5/10/3 6/11/3
f 6/12/4 2/13/4 4/5/4 8/14/4
f 2/13/5 1/1/5 3/4/5 4/5/5
f 6/11/6 5/10/6 1/1/6 2/13/6
o Cube.001
v -1.750000 0.250000 2.500000
v -1.250000 4.500000 -2.250000
v -1.750000 5.250000 2.500000
v -1.250000 0.500000 -2.250000
v -1.750000 0.250000 -2.500000
v -1.750000 5.250000 -2.500000
v 1.750000 0.250000 2.500000
v 1.250000 4.500000 -2.250000
v 1.750000 5.250000 2.500000
v 1.250000 0.500000 -2.250000
v 1.750000 0.250000 -2.500000
v 1.750000 5.250000 -2.500000
v 1.250000 4.500000 2.500000
v -1.250000 0.500000 2.500000
v -1.250000 4.500000 2.500000
v 1.250000 0.500000 2.500000
vn -1.0000 -0.0000 -0.0000
vn -0.0000 -0.0000 -1.0000
vn 1.0000 -0.0000 -0.0000
vn -0.0000 -0.0000 1.0000
vn -0.0000 -1.0000 -0.0000
vn -0.0000 1.0000 -0.0000
vt 0.375000 0.000000
vt 0.625000 0.000000
vt 0.625000 0.250000
vt 0.375000 0.250000
vt 0.625000 0.500000
vt 0.375000 0.500000
vt 0.625000 0.750000
vt 0.375000 0.750000
vt 0.387500 0.785714
vt 0.625000 1.000000
vt 0.375000 1.000000
vt 0.387500 0.964286
vt 0.587500 0.964286
vt 0.587500 0.785714
vt 0.125000 0.500000
vt 0.125000 0.750000
vt 0.875000 0.500000
vt 0.875000 0.750000
vt 0.375000 0.131944
vt 0.625000 0.131944
vt 0.625000 0.618056
vt 0.375000 0.618056
vt 0.125000 0.618056
vt 0.875000 0.618056
s 0
usemtl Material.008
f 9/15/7 11/16/7 14/17/7 13/18/7
f 13/18/8 14/17/8 20/19/8 19/20/8
f 19/20/9 20/19/9 17/21/9 15/22/9
f 24/23/10 15/22/10 17/21/10 11/24/10 9/25/10 22/26/10 23/27/10 21/28/10
f 22/26/10 9/25/10 15/22/10 24/23/10
f 13/29/11 19/20/11 15/22/11 9/30/11
f 20/19/12 14/31/12 11/32/12 17/21/12
f 12/16/9 10/15/9 23/33/9 22/34/9
f 16/22/7 18/21/7 24/35/7 21/36/7
f 16/22/10 10/25/10 12/24/10 18/21/10
f 10/30/11 16/22/11 21/36/11 23/37/11
f 24/35/12 18/21/12 12/32/12 22/38/12
o Cube.002
v 2.000000 0.250000 -3.000000
v 2.000000 -0.250000 -3.000000
v 2.000000 0.250000 3.000000
v 2.000000 -0.250000 3.000000
v -2.000000 0.250000 -3.000000
v -2.000000 -0.250000 -3.000000
v -2.000000 0.250000 3.000000
v -2.000000 -0.250000 3.000000
vn -0.0000 1.0000 -0.0000
vn -0.0000 -0.0000 1.0000
vn -1.0000 -0.0000 -0.0000
vn -0.0000 -1.0000 -0.0000
vn 1.0000 -0.0000 -0.0000
vn -0.0000 -0.0000 -1.0000
vt 0.625000 0.500000
vt 0.875000 0.500000
vt 0.875000 0.750000
vt 0.625000 0.750000
vt 0.375000 0.750000
vt 0.625000 1.000000
vt 0.375000 1.000000
vt 0.375000 0.000000
vt 0.625000 0.000000
vt 0.625000 0.250000
vt 0.375000 0.250000
vt 0.125000 0.500000
vt 0.375000 0.500000
vt 0.125000 0.750000
s 0
usemtl Material.001
f 25/39/13 29/40/13 31/41/13 27/42/13
f 28/43/14 27/42/14 31/44/14 32/45/14
f 32/46/15 31/47/15 29/48/15 30/49/15
f 30/50/16 26/51/16 28/43/16 32/52/16
f 26/51/17 25/39/17 27/42/17 28/43/17
f 30/49/18 29/48/18 25/39/18 26/51/18
o Cube.003
v 0.250000 7.750000 -1.000000
v 0.250000 7.250000 -1.000000
v 0.250000 7.750000 1.000000
v 0.250000 7.250000 1.000000
v -0.250000 7.750000 -1.000000
v -0.250000 7.250000 -1.000000
v -0.250000 7.750000 1.000000
v -0.250000 7.250000 1.000000
vn -0.0000 1.0000 -0.0000
vn -0.0000 -0.0000 1.0000
vn -1.0000 -0.0000 -0.0000
vn -0.0000 -1.0000 -0.0000
vn 1.0000 -0.0000 -0.0000
vn -0.0000 -0.0000 -1.0000
vt 0.625000 0.500000
vt 0.875000 0.500000
vt 0.875000 0.750000
vt 0.625000 0.750000
vt 0.375000 0.750000
vt 0.625000 1.000000
vt 0.375000 1.000000
vt 0.375000 0.000000
vt 0.625000 0.000000
vt 0.625000 0.250000
vt 0.375000 0.250000
vt 0.125000 0.500000
vt 0.375000 0.500000
vt 0.125000 0.750000
s 0
usemtl Material.002
f 33/53/19 37/54/19 39/55/19 35/56/19
f 36/57/20 35/56/20 39/58/20 40/59/20
f 40/60/21 39/61/21 37/62/21 38/63/21
f 38/64/22 34/65/22 36/57/22 40/66/22
f 34/65/23 33/53/23 35/56/23 36/57/23
f 38/63/24 37/62/24 33/53/24 34/65/24
o Cube.004
v 1.500000 0.500000 2.500000
v 1.500000 0.250000 2.500000
v 1.500000 0.500000 2.750000
v 1.500000 0.250000 2.750000
v -1.500000 0.500000 2.500000
v -1.500000 0.250000 2.500000
v -1.500000 0.500000 2.750000
v -1.500000 0.250000 2.750000
vn -0.0000 1.0000 -0.0000
vn -0.0000 -0.0000 1.0000
vn -1.0000 -0.0000 -0.0000
vn -0.0000 -1.0000 -0.0000
vn 1.0000 -0.0000 -0.0000
vn -0.0000 -0.0000 -1.0000
vt 0.625000 0.500000
vt 0.875000 0.500000
vt 0.875000 0.750000
vt 0.625000 0.750000
vt 0.375000 0.750000
vt 0.625000 1.000000
vt 0.375000 1.000000
vt 0.375000 0.000000
vt 0.625000 0.000000
vt 0.625000 0.250000
vt 0.375000 0.250000
vt 0.125000 0.500000
vt 0.375000 0.500000
vt 0.125000 0.750000
s 0
usemtl Material.003
f 41/67/25 45/68/25 47/69/25 43/70/25
f 44/71/26 43/70/26 47/72/26 48/73/26
f 48/74/27 47/75/27 45/76/27 46/77/27
f 46/78/28 42/79/28 44/71/28 48/80/28
f 42/79/29 41/67/29 43/70/29 44/71/29
f 46/77/30 45/76/30 41/67/30 42/79/30
o Cube.005
v -0.750000 2.750000 2.412500
v -0.750000 2.250000 2.412500
v -0.750000 2.750000 2.587500
v -0.750000 2.250000 2.587500
v -1.250000 2.750000 2.412500
v -1.250000 2.250000 2.412500
v -1.250000 2.750000 2.587500
v -1.250000 2.250000 2.587500
vn -0.0000 1.0000 -0.0000
vn -0.0000 -0.0000 1.0000
vn -1.0000 -0.0000 -0.0000
vn -0.0000 -1.0000 -0.0000
vn 1.0000 -0.0000 -0.0000
vn -0.0000 -0.0000 -1.0000
vt 0.625000 0.500000
vt 0.875000 0.500000
vt 0.875000 0.750000
vt 0.625000 0.750000
vt 0.375000 0.750000
vt 0.625000 1.000000
vt 0.375000 1.000000
vt 0.375000 0.000000
vt 0.625000 0.000000
vt 0.625000 0.250000
vt 0.375000 0.250000
vt 0.125000 0.500000
vt 0.375000 0.500000
vt 0.125000 0.750000
s 0
usemtl Material.004
f 49/81/31 53/82/31 55/83/31 51/84/31
f 52/85/32 51/84/32 55/86/32 56/87/32
f 56/88/33 55/89/33 53/90/33 54/91/33
f 54/92/34 50/93/34 52/85/34 56/94/34
f 50/93/35 49/81/35 51/84/35 52/85/35
f 54/91/36 53/90/36 49/81/36 50/93/36
o Cube.006
v -0.625000 0.500000 2.425000
v -0.875000 0.500000 2.425000
v -0.625000 0.500000 2.575000
v -0.875000 0.500000 2.575000
v -0.625000 4.500000 2.425000
v -0.875000 4.500000 2.425000
v -0.625000 4.500000 2.575000
v -0.875000 4.500000 2.575000
vn 1.0000 -0.0000 -0.0000
vn -0.0000 -0.0000 1.0000
vn -0.0000 1.0000 -0.0000
vn -1.0000 -0.0000 -0.0000
vn -0.0000 -1.0000 -0.0000
vn -0.0000 -0.0000 -1.0000
vt 0.625000 0.500000
vt 0.875000 0.500000
vt 0.875000 0.750000
vt 0.625000 0.750000
vt 0.375000 0.750000
vt 0.625000 1.000000
vt 0.375000 1.000000
vt 0.375000 0.000000
vt 0.625000 0.000000
vt 0.625000 0.250000
vt 0.375000 0.250000
vt 0.125000 0.500000
vt 0.375000 0.500000
vt 0.125000 0.750000
s 0
usemtl Material.005
f 57/95/37 61/96/37 63/97/37 59/98/37
f 60/99/38 59/98/38 63/100/38 64/101/38
f 64/102/39 63/103/39 61/104/39 62/105/39
f 62/106/40 58/107/40 60/99/40 64/108/40
f 58/107/41 57/95/41 59/98/41 60/99/41
f 62/105/42 61/104/42 57/95/42 58/107/42
o Cube.007
v 0.125000 0.500000 2.425000
v -0.125000 0.500000 2.425000
v 0.125000 0.500000 2.575000
v -0.125000 0.500000 2.575000
v 0.125000 4.500000 2.425000
v -0.125000 4.500000 2.425000
v 0.125000 4.500000 2.575000
v -0.125000 4.500000 2.575000
vn 1.0000 -0.0000 -0.0000
vn -0.0000 -0.0000 1.0000
vn -0.0000 1.0000 -0.0000
vn -1.0000 -0.0000 -0.0000
vn -0.0000 -1.0000 -0.0000
vn -0.0000 -0.0000 -1.0000
vt 0.625000 0.500000
vt 0.875000 0.500000
vt 0.875000 0.750000
vt 0.625000 0.750000
vt 0.375000 0.750000
vt 0.625000 1.000000
vt 0.375000 1.000000
vt 0.375000 0.000000
vt 0.625000 0.000000
vt 0.625000 0.250000
vt 0.375000 0.250000
vt 0.125000 0.500000
vt 0.375000 0.500000
vt 0.125000 0.750000
s 0
usemtl Material.006
f 65/109/43 69/110/43 71/111/43 67/112/43
f 68/113/44 67/112/44 71/114/44 72/115/44
f 72/116/45 71/117/45 69/118/45 70/119/45
f 70/120/46 66/121/46 68/113/46 72/122/46
f 66/121/47 65/109/47 67/112/47 68/113/47
f 70/119/48 69/118/48 65/109/48 66/121/48
o Cube.008
v 1.250000 2.625000 2.450000
v 1.250000 2.375000 2.450000
v 1.250000 2.625000 2.550000
v 1.250000 2.375000 2.550000
v -1.250000 2.625000 2.450000
v -1.250000 2.375000 2.450000
v -1.250000 2.625000 2.550000
v -1.250000 2.375000 2.550000
vn -0.0000 1.0000 -0.0000
vn -0.0000 -0.0000 1.0000
vn -1.0000 -0.0000 -0.0000
vn -0.0000 -1.0000 -0.0000
vn 1.0000 -0.0000 -0.0000
vn -0.0000 -0.0000 -1.0000
vt 0.625000 0.500000
vt 0.875000 0.500000
vt 0.875000 0.750000
vt 0.625000 0.750000
vt 0.375000 0.750000
vt 0.625000 1.000000
vt 0.375000 1.000000
vt 0.375000 0.000000
vt 0.625000 0.000000
vt 0.625000 0.250000
vt 0.375000 0.250000
vt 0.125000 0.500000
vt 0.375000 0.500000
vt 0.125000 0.750000
s 0
usemtl Material.007
f 73/123/49 77/124/49 79/125/49 75/126/49
f 76/127/50 75/126/50 79/128/50 80/129/50
f 80/130/51 79/131/51 77/132/51 78/133/51
f 78/134/52 74/135/52 76/127/52 80/136/52
f 74/135/53 73/123/53 75/126/53 76/127/53
f 78/133/54 77/132/54 73/123/54 74/135/54
o Cube.009
v 2.000000 5.750000 -3.000000
v 2.000000 5.250000 -3.000000
v 2.000000 5.750000 3.000000
v 2.000000 5.250000 3.000000
v -2.000000 5.750000 -3.000000
v -2.000000 5.250000 -3.000000
v -2.000000 5.750000 3.000000
v -2.000000 5.250000 3.000000
vn -0.0000 1.0000 -0.0000
vn -0.0000 -0.0000 1.0000
vn -1.0000 -0.0000 -0.0000
vn -0.0000 -1.0000 -0.0000
vn 1.0000 -0.0000 -0.0000
vn -0.0000 -0.0000 -1.0000
vt 0.625000 0.500000
vt 0.875000 0.500000
vt 0.875000 0.750000
vt 0.625000 0.750000
vt 0.375000 0.750000
vt 0.625000 1.000000
vt 0.375000 1.000000
vt 0.375000 0.000000
vt 0.625000 0.000000
vt 0.625000 0.250000
vt 0.375000 0.250000
vt 0.125000 0.500000
vt 0.375000 0.500000
vt 0.125000 0.750000
s 0
usemtl Material.009
f 81/137/55 85/138/55 87/139/55 83/140/55
f 84/141/56 83/140/56 87/142/56 88/143/56
f 88/144/57 87/145/57 85/146/57 86/147/57
f 86/148/58 82/149/58 84/141/58 88/150/58
f 82/149/59 81/137/59 83/140/59 84/141/59
f 86/147/60 85/146/60 81/137/60 82/149/60
o Cube.010
v 1.500000 6.250000 -2.500000
v 1.500000 5.750000 -2.500000
v 1.500000 6.250000 2.500000
v 1.500000 5.750000 2.500000
v -1.500000 6.250000 -2.500000
v -1.500000 5.750000 -2.500000
v -1.500000 6.250000 2.500000
v -1.500000 5.750000 2.500000
vn -0.0000 1.0000 -0.0000
vn -0.0000 -0.0000 1.0000
vn -1.0000 -0.0000 -0.0000
vn -0.0000 -1.0000 -0.0000
vn 1.0000 -0.0000 -0.0000
vn -0.0000 -0.0000 -1.0000
vt 0.625000 0.500000
vt 0.875000 0.500000
vt 0.875000 0.750000
vt 0.625000 0.750000
vt 0.375000 0.750000
vt 0.625000 1.000000
vt 0.375000 1.000000
vt 0.375000 0.000000
vt 0.625000 0.000000
vt 0.625000 0.250000
vt 0.375000 0.250000
vt 0.125000 0.500000
vt 0.375000 0.500000
vt 0.125000 0.750000
s 0
usemtl Material.010
f 89/151/61 93/152/61 95/153/61 91/154/61
f 92/155/62 91/154/62 95/156/62 96/157/62
f 96/158/63 95/159/63 93/160/63 94/161/63
f 94/162/64 90/163/64 92/155/64 96/164/64
f 90/163/65 89/151/65 91/154/65 92/155/65
f 94/161/66 93/160/66 89/151/66 90/163/66
o Cube.011
v 1.000000 6.750000 -2.000000
v 1.000000 6.250000 -2.000000
v 1.000000 6.750000 2.000000
v 1.000000 6.250000 2.000000
v -1.000000 6.750000 -2.000000
v -1.000000 6.250000 -2.000000
v -1.000000 6.750000 2.000000
v -1.000000 6.250000 2.000000
vn -0.0000 1.0000 -0.0000
vn -0.0000 -0.0000 1.0000
vn -1.0000 -0.0000 -0.0000
vn -0.0000 -1.0000 -0.0000
vn 1.0000 -0.0000 -0.0000
vn -0.0000 -0.0000 -1.0000
vt 0.625000 0.500000
vt 0.875000 0.500000
vt 0.875000 0.750000
vt 0.625000 0.750000
vt 0.375000 0.750000
vt 0.625000 1.000000
vt 0.375000 1.000000
vt 0.375000 0.000000
vt 0.625000 0.000000
vt 0.625000 0.250000
vt 0.375000 0.250000
vt 0.125000 0.500000
vt 0.375000 0.500000
vt 0.125000 0.750000
s 0
usemtl Material.011
f 97/165/67 101/166/67 103/167/67 99/168/67
f 100/169/68 99/168/68 103/170/68 104/171/68
f 104/172/69 103/173/69 101/174/69 102/175/69
f 102/176/70 98/177/70 100/169/70 104/178/70
f 98/177/71 97/165/71 99/168/71 100/169/71
f 102/175/72 101/174/72 97/165/72 98/177/72
o Cube.012
v 0.500000 7.250000 -1.500000
v 0.500000 6.750000 -1.500000
v 0.500000 7.250000 1.500000
v 0.500000 6.750000 1.500000
v -0.500000 7.250000 -1.500000
v -0.500000 6.750000 -1.500000
v -0.500000 7.250000 1.500000
v -0.500000 6.750000 1.500000
vn -0.0000 1.0000 -0.0000
vn -0.0000 -0.0000 1.0000
vn -1.0000 -0.0000 -0.0000
vn -0.0000 -1.0000 -0.0000
vn 1.0000 -0.0000 -0.0000
vn -0.0000 -0.0000 -1.0000
vt 0.625000 0.500000
vt 0.875000 0.500000
vt 0.875000 0.750000
vt 0.625000 0.750000
vt 0.375000 0.750000
vt 0.625000 1.000000
vt 0.375000 1.000000
vt 0.375000 0.000000
vt 0.625000 0.000000
vt 0.625000 0.250000
vt 0.375000 0.250000
vt 0.125000 0.500000
vt 0.375000 0.500000
vt 0.125000 0.750000
s 0
usemtl Material.012
f 105/179/73 109/180/73 111/181/73 107/182/73
f 108/183/74 107/182/74 111/184/74 112/185/74
f 112/186/75 111/187/75 109/188/75 110/189/75
f 110/190/76 106/191/76 108/183/76 112/192/76
f 106/191/77 105/179/77 107/182/77 108/183/77
f 110/189/78 109/188/78 105/179/78 106/191/78
