# Blender 4.2.0
# www.blender.org
mtllib storeStall.mtl
o Cube
v -4.250000 3.000000 4.750000
v -4.250000 3.500000 4.750000
v -4.250000 3.000000 3.250000
v -4.250000 3.500000 3.250000
v 4.250000 3.000000 4.750000
v 4.250000 3.500000 4.750000
v 4.250000 3.000000 3.250000
v 4.250000 3.500000 3.250000
v -6.000001 10.000000 5.999999
v -6.000001 11.000000 5.999999
v -6.000001 10.000000 -6.000001
v -6.000001 11.000000 -6.000001
v 6.000001 10.000000 5.999999
v 6.000001 11.000000 5.999999
v 6.000001 10.000000 -6.000001
v 6.000001 11.000000 -6.000001
v -4.000000 0.000000 5.000000
v -4.000000 10.000002 4.999999
v -5.000000 0.000000 5.000000
v -5.000000 10.000002 4.999999
v -4.000000 -0.000000 -5.000000
v -4.000000 10.000000 -5.000001
v -5.000000 -0.000000 -5.000000
v -5.000000 10.000000 -5.000001
v -5.000000 -0.000000 -4.500001
v -5.000000 10.000000 -4.500001
v -5.000000 -0.000000 -5.500001
v -5.000000 10.000000 -5.500001
v 5.000000 -0.000000 -4.500001
v 5.000000 10.000000 -4.500001
v 5.000000 -0.000000 -5.500001
v 5.000000 10.000000 -5.500001
v 5.000000 0.000000 5.000000
v 5.000000 10.000002 4.999999
v 4.000000 0.000000 5.000000
v 4.000000 10.000002 4.999999
v 5.000000 -0.000000 -5.000000
v 5.000000 10.000000 -5.000001
v 4.000000 -0.000000 -5.000000
v 4.000000 10.000000 -5.000001
v -4.750000 7.000001 5.000000
v -4.750000 10.000002 4.999999
v -4.750000 7.000000 3.999999
v -4.750000 10.000002 3.999999
v 4.750000 7.000001 5.000000
v 4.750000 10.000002 4.999999
v 4.750000 7.000000 3.999999
v 4.750000 10.000002 3.999999
v -5.500000 11.000000 5.500000
v -5.500000 12.000002 5.499999
v -5.500000 11.000000 -5.500001
v -5.500000 12.000002 -5.500002
v 5.500000 11.000000 5.500000
v 5.500000 12.000002 5.499999
v 5.500000 11.000000 -5.500001
v 5.500000 12.000002 -5.500002
v -4.750000 0.000000 4.500000
v -4.750000 3.000000 4.500000
v -4.750000 0.000000 3.500000
v -4.750000 3.000000 3.500000
v 4.750000 0.000000 4.500000
v 4.750000 3.000000 4.500000
v 4.750000 0.000000 3.500000
v 4.750000 3.000000 3.500000
v -5.250000 -0.499999 5.500000
v -5.250000 0.500000 5.500000
v -5.250000 -0.500000 -5.500001
v -5.250000 0.500000 -5.500001
v 5.250000 -0.499999 5.500000
v 5.250000 0.500000 5.500000
v 5.250000 -0.500000 -5.500001
v 5.250000 0.500000 -5.500001
v -5.000000 9.000002 5.000000
v -5.000000 10.000002 4.999999
v -5.000000 9.000000 -5.000001
v -5.000000 10.000000 -5.000001
v 5.000000 9.000002 5.000000
v 5.000000 10.000002 4.999999
v 5.000000 9.000000 -5.000001
v 5.000000 10.000000 -5.000001
vn -1.0000 -0.0000 -0.0000
vn -0.0000 -0.0000 -1.0000
vn 1.0000 -0.0000 -0.0000
vn -0.0000 -0.0000 1.0000
vn -0.0000 -1.0000 -0.0000
vn -0.0000 1.0000 -0.0000
vt 0.375000 0.000000
vt 0.625000 0.000000
vt 0.625000 0.250000
vt 0.375000 0.250000
vt 0.625000 0.500000
vt 0.375000 0.500000
vt 0.625000 0.750000
vt 0.375000 0.750000
vt 0.625000 1.000000
vt 0.375000 1.000000
vt 0.125000 0.500000
vt 0.125000 0.750000
vt 0.875000 0.500000
vt 0.875000 0.750000
s 0
usemtl Material.001
f 1/1/1 2/2/1 4/3/1 3/4/1
f 3/4/2 4/3/2 8/5/2 7/6/2
f 7/6/3 8/5/3 6/7/3 5/8/3
f 5/8/4 6/7/4 2/9/4 1/10/4
f 3/11/5 7/6/5 5/8/5 1/12/5
f 8/5/6 4/13/6 2/14/6 6/7/6
usemtl Material.029
f 9/1/1 10/2/1 12/3/1 11/4/1
f 11/4/2 12/3/2 16/5/2 15/6/2
f 15/6/3 16/5/3 14/7/3 13/8/3
f 13/8/4 14/7/4 10/9/4 9/10/4
f 11/11/5 15/6/5 13/8/5 9/12/5
f 16/5/6 12/13/6 10/14/6 14/7/6
usemtl Material.031
f 17/1/4 18/2/4 20/3/4 19/4/4
f 19/4/1 20/3/1 24/5/1 23/6/1
f 23/6/2 24/5/2 22/7/2 21/8/2
f 21/8/3 22/7/3 18/9/3 17/10/3
f 19/11/5 23/6/5 21/8/5 17/12/5
f 24/5/6 20/13/6 18/14/6 22/7/6
usemtl Material.034
f 25/1/1 26/2/1 28/3/1 27/4/1
f 27/4/2 28/3/2 32/5/2 31/6/2
f 31/6/3 32/5/3 30/7/3 29/8/3
f 29/8/4 30/7/4 26/9/4 25/10/4
f 27/11/5 31/6/5 29/8/5 25/12/5
f 32/5/6 28/13/6 26/14/6 30/7/6
usemtl Material.030
f 33/1/4 34/2/4 36/3/4 35/4/4
f 35/4/1 36/3/1 40/5/1 39/6/1
f 39/6/2 40/5/2 38/7/2 37/8/2
f 37/8/3 38/7/3 34/9/3 33/10/3
f 35/11/5 39/6/5 37/8/5 33/12/5
f 40/5/6 36/13/6 34/14/6 38/7/6
usemtl Material.032
f 41/1/1 42/2/1 44/3/1 43/4/1
f 43/4/2 44/3/2 48/5/2 47/6/2
f 47/6/3 48/5/3 46/7/3 45/8/3
f 45/8/4 46/7/4 42/9/4 41/10/4
f 43/11/5 47/6/5 45/8/5 41/12/5
f 48/5/6 44/13/6 42/14/6 46/7/6
usemtl Material.028
f 49/1/1 50/2/1 52/3/1 51/4/1
f 51/4/2 52/3/2 56/5/2 55/6/2
f 55/6/3 56/5/3 54/7/3 53/8/3
f 53/8/4 54/7/4 50/9/4 49/10/4
f 51/11/5 55/6/5 53/8/5 49/12/5
f 56/5/6 52/13/6 50/14/6 54/7/6
usemtl Material.036
f 57/1/1 58/2/1 60/3/1 59/4/1
f 59/4/2 60/3/2 64/5/2 63/6/2
f 63/6/3 64/5/3 62/7/3 61/8/3
f 61/8/4 62/7/4 58/9/4 57/10/4
f 59/11/5 63/6/5 61/8/5 57/12/5
f 64/5/6 60/13/6 58/14/6 62/7/6
usemtl Material.035
f 65/1/1 66/2/1 68/3/1 67/4/1
f 67/4/2 68/3/2 72/5/2 71/6/2
f 71/6/3 72/5/3 70/7/3 69/8/3
f 69/8/4 70/7/4 66/9/4 65/10/4
f 67/11/5 71/6/5 69/8/5 65/12/5
f 72/5/6 68/13/6 66/14/6 70/7/6
usemtl Material.033
f 73/1/1 74/2/1 76/3/1 75/4/1
f 75/4/2 76/3/2 80/5/2 79/6/2
f 79/6/3 80/5/3 78/7/3 77/8/3
f 77/8/4 78/7/4 74/9/4 73/10/4
f 75/11/5 79/6/5 77/8/5 73/12/5
f 80/5/6 76/13/6 74/14/6 78/7/6
