# Blender 4.2.0
# www.blender.org
mtllib target.mtl
o Cube.007
v 0.330000 2.566960 -0.250000
v 0.330000 2.066960 -0.250000
v 0.330000 2.566960 0.250000
v 0.330000 2.066960 0.250000
v -0.670000 2.566960 -0.250000
v -0.670000 2.066960 -0.250000
v -0.670000 2.566960 0.250000
v -0.670000 2.066960 0.250000
v -0.043221 1.720993 0.413397
v 0.257547 0.015256 1.413397
v -0.060585 1.819474 0.586603
v 0.240182 0.113737 1.586603
v -0.240182 1.686263 0.413397
v 0.060585 -0.019474 1.413397
v -0.257547 1.784744 0.586603
v 0.043221 0.079007 1.586603
v 0.310000 3.066960 -0.750000
v 0.310000 1.566960 -0.750000
v 0.310000 3.066960 0.750000
v 0.310000 1.566960 0.750000
v -0.690000 3.066960 -0.750000
v -0.690000 1.566960 -0.750000
v -0.690000 3.066960 0.750000
v -0.690000 1.566960 0.750000
v -0.413397 1.716025 -0.100000
v -1.413397 -0.016025 -0.100000
v -0.413397 1.716025 0.100000
v -1.413397 -0.016025 0.100000
v -0.586603 1.816025 -0.100000
v -1.586603 0.083975 -0.100000
v -0.586603 1.816025 0.100000
v -1.586603 0.083975 0.100000
v -0.060585 1.819474 -0.586603
v 0.240182 0.113737 -1.586603
v -0.043221 1.720993 -0.413397
v 0.257547 0.015256 -1.413397
v -0.257547 1.784744 -0.586603
v 0.043221 0.079007 -1.586603
v -0.240182 1.686263 -0.413397
v 0.060585 -0.019474 -1.413397
v 0.300000 3.316960 -1.000000
v 0.300000 1.316960 -1.000000
v 0.300000 3.316960 1.000000
v 0.300000 1.316960 1.000000
v -0.700000 3.316960 -1.000000
v -0.700000 1.316960 -1.000000
v -0.700000 3.316960 1.000000
v -0.700000 1.316960 1.000000
v 0.320000 2.816960 -0.500000
v 0.320000 1.816960 -0.500000
v 0.320000 2.816960 0.500000
v 0.320000 1.816960 0.500000
v -0.680000 2.816960 -0.500000
v -0.680000 1.816960 -0.500000
v -0.680000 2.816960 0.500000
v -0.680000 1.816960 0.500000
vn -0.0000 1.0000 -0.0000
vn -0.0000 -0.0000 1.0000
vn -1.0000 -0.0000 -0.0000
vn -0.0000 -1.0000 -0.0000
vn 1.0000 -0.0000 -0.0000
vn -0.0000 -0.0000 -1.0000
vn -0.1504 0.8529 -0.5000
vn -0.0868 0.4924 0.8660
vn -0.9848 -0.1736 -0.0000
vn 0.1504 -0.8529 0.5000
vn 0.9848 0.1736 -0.0000
vn 0.0868 -0.4924 -0.8660
vn 0.5000 0.8660 -0.0000
vn -0.8660 0.5000 -0.0000
vn -0.5000 -0.8660 -0.0000
vn 0.8660 -0.5000 -0.0000
vn -0.1504 0.8529 0.5000
vn 0.0868 -0.4924 0.8660
vn 0.1504 -0.8529 -0.5000
vn -0.0868 0.4924 -0.8660
vt 0.625000 0.500000
vt 0.875000 0.500000
vt 0.875000 0.750000
vt 0.625000 0.750000
vt 0.375000 0.750000
vt 0.625000 1.000000
vt 0.375000 1.000000
vt 0.375000 0.000000
vt 0.625000 0.000000
vt 0.625000 0.250000
vt 0.375000 0.250000
vt 0.125000 0.500000
vt 0.375000 0.500000
vt 0.125000 0.750000
s 0
usemtl Material.009
f 1/1/1 5/2/1 7/3/1 3/4/1
f 4/5/2 3/4/2 7/6/2 8/7/2
f 8/8/3 7/9/3 5/10/3 6/11/3
f 6/12/4 2/13/4 4/5/4 8/14/4
f 2/13/5 1/1/5 3/4/5 4/5/5
f 6/11/6 5/10/6 1/1/6 2/13/6
usemtl Material.002
f 9/1/7 13/2/7 15/3/7 11/4/7
f 12/5/8 11/4/8 15/6/8 16/7/8
f 16/8/9 15/9/9 13/10/9 14/11/9
f 14/12/10 10/13/10 12/5/10 16/14/10
f 10/13/11 9/1/11 11/4/11 12/5/11
f 14/11/12 13/10/12 9/1/12 10/13/12
usemtl Material.003
f 17/1/1 21/2/1 23/3/1 19/4/1
f 20/5/2 19/4/2 23/6/2 24/7/2
f 24/8/3 23/9/3 21/10/3 22/11/3
f 22/12/4 18/13/4 20/5/4 24/14/4
f 18/13/5 17/1/5 19/4/5 20/5/5
f 22/11/6 21/10/6 17/1/6 18/13/6
usemtl Material.005
f 25/1/13 29/2/13 31/3/13 27/4/13
f 28/5/2 27/4/2 31/6/2 32/7/2
f 32/8/14 31/9/14 29/10/14 30/11/14
f 30/12/15 26/13/15 28/5/15 32/14/15
f 26/13/16 25/1/16 27/4/16 28/5/16
f 30/11/6 29/10/6 25/1/6 26/13/6
usemtl Material.006
f 33/1/17 37/2/17 39/3/17 35/4/17
f 36/5/18 35/4/18 39/6/18 40/7/18
f 40/8/9 39/9/9 37/10/9 38/11/9
f 38/12/19 34/13/19 36/5/19 40/14/19
f 34/13/11 33/1/11 35/4/11 36/5/11
f 38/11/20 37/10/20 33/1/20 34/13/20
usemtl Material.007
f 41/1/1 45/2/1 47/3/1 43/4/1
f 44/5/2 43/4/2 47/6/2 48/7/2
f 48/8/3 47/9/3 45/10/3 46/11/3
f 46/12/4 42/13/4 44/5/4 48/14/4
f 42/13/5 41/1/5 43/4/5 44/5/5
f 46/11/6 45/10/6 41/1/6 42/13/6
usemtl Material.008
f 49/1/1 53/2/1 55/3/1 51/4/1
f 52/5/2 51/4/2 55/6/2 56/7/2
f 56/8/3 55/9/3 53/10/3 54/11/3
f 54/12/4 50/13/4 52/5/4 56/14/4
f 50/13/5 49/1/5 51/4/5 52/5/5
f 54/11/6 53/10/6 49/1/6 50/13/6
