# Blender 4.3.2
# www.blender.org
mtllib tree.mtl
o Cube.003
v 0.000000 7.791951 -0.000000
v -1.750000 4.291951 -1.750000
v -1.750000 4.291951 1.750000
v 1.750000 4.291951 -1.750000
v 1.750000 4.291951 1.750000
v 0.375689 4.000000 0.500000
v 0.500000 4.000000 0.377643
v 0.500000 0.000000 0.377643
v 0.375689 0.000000 0.500000
v 0.500000 4.000000 -0.377814
v 0.375862 4.000000 -0.500000
v 0.375862 0.000000 -0.500000
v 0.500000 0.000000 -0.377813
v -0.375282 4.000000 -0.500000
v -0.500000 4.000000 -0.377242
v -0.500000 0.000000 -0.377242
v -0.375282 0.000000 -0.500000
v -0.500000 4.000000 0.392544
v -0.390828 4.000000 0.500000
v -0.390828 0.000000 0.500000
v -0.500000 0.000000 0.392544
v 0.000000 6.527813 -0.000000
v -2.000000 2.527813 -2.000000
v -2.000000 2.527814 2.000000
v 2.000000 2.527813 -2.000000
v 2.000000 2.527814 2.000000
v 0.000000 8.819646 -0.000000
v -1.500000 5.819646 -1.500000
v -1.500000 5.819646 1.500000
v 1.500000 5.819646 -1.500000
v 1.500000 5.819646 1.500000
vn -0.8944 0.4472 -0.0000
vn -0.0000 0.4472 0.8944
vn 0.8944 0.4472 -0.0000
vn -0.0000 0.4472 -0.8944
vn -0.0000 -1.0000 -0.0000
vn -0.0000 -0.0000 -1.0000
vn -0.0000 1.0000 -0.0000
vn 0.7015 -0.0000 0.7127
vn 1.0000 -0.0000 -0.0000
vn 0.7015 -0.0000 -0.7127
vn -0.7015 -0.0000 -0.7127
vn -1.0000 -0.0000 -0.0000
vn -0.7015 -0.0000 0.7127
vn -0.0000 -0.0000 1.0000
vt 0.375000 0.000000
vt 0.625000 0.000000
vt 0.625000 0.250000
vt 0.375000 0.250000
vt 0.625000 0.500000
vt 0.375000 0.500000
vt 0.625000 0.750000
vt 0.375000 0.750000
vt 0.625000 1.000000
vt 0.875000 0.500000
vt 0.875000 0.750000
vt 0.375000 0.781034
vt 0.625000 0.781034
vt 0.625000 0.968821
vt 0.375000 0.968821
vt 0.625000 0.530589
vt 0.656078 0.500000
vt 0.847707 0.500000
vt 0.875000 0.526864
vt 0.875000 0.719311
vt 0.843821 0.750000
vt 0.656034 0.750000
vt 0.625000 0.719453
vt 0.125000 0.526864
vt 0.152293 0.500000
vt 0.343922 0.500000
vt 0.375000 0.530589
vt 0.375000 0.719453
vt 0.343966 0.750000
vt 0.156180 0.750000
vt 0.125000 0.719311
vt 0.375000 0.468922
vt 0.625000 0.468922
vt 0.625000 0.030689
vt 0.375000 0.030689
vt 0.625000 0.223136
vt 0.375000 0.223136
vt 0.625000 0.277293
vt 0.375000 0.277293
s 0
usemtl Material.005
f 1/1/1 2/2/1 3/3/1
f 1/4/2 3/3/2 5/5/2
f 1/6/3 5/5/3 4/7/3
f 1/8/4 4/7/4 2/9/4
f 5/5/5 3/10/5 2/11/5 4/7/5
usemtl Material.006
f 11/12/6 12/13/6 17/14/6 14/15/6
f 8/16/5 9/17/5 20/18/5 21/19/5 16/20/5 17/21/5 12/22/5 13/23/5
f 18/24/7 19/25/7 6/26/7 7/27/7 10/28/7 11/29/7 14/30/7 15/31/7
f 8/16/8 7/27/8 6/32/8 9/33/8
f 7/27/9 8/16/9 13/23/9 10/28/9
f 12/13/10 11/12/10 10/28/10 13/23/10
f 14/1/11 17/2/11 16/34/11 15/35/11
f 15/35/12 16/34/12 21/36/12 18/37/12
f 20/38/13 19/39/13 18/37/13 21/36/13
f 19/39/14 20/38/14 9/33/14 6/32/14
usemtl 20853E
f 22/1/1 23/2/1 24/3/1
f 22/4/2 24/3/2 26/5/2
f 22/6/3 26/5/3 25/7/3
f 22/8/4 25/7/4 23/9/4
f 26/5/5 24/10/5 23/11/5 25/7/5
usemtl Material.004
f 27/1/1 28/2/1 29/3/1
f 27/4/2 29/3/2 31/5/2
f 27/6/3 31/5/3 30/7/3
f 27/8/4 30/7/4 28/9/4
f 31/5/5 29/10/5 28/11/5 30/7/5
