# Blender 4.3.2
# www.blender.org
mtllib bossMagicArm.mtl
o Cube.002
v 0.609252 -0.450350 -2.460388
v -0.640748 -0.450350 -2.460388
v 0.609252 0.160450 -2.238075
v -0.640748 0.160450 -2.238075
v 0.609252 -2.160450 2.238075
v -0.640748 -2.160450 2.238075
v 0.609252 -1.549650 2.460388
v -0.640748 -1.549650 2.460388
v 0.484252 -0.263913 -2.805351
v -0.515748 -0.263913 -2.805351
v 0.484252 0.205933 -2.634341
v -0.515748 0.205933 -2.634341
v 0.484252 -0.605933 -1.865659
v -0.515748 -0.605933 -1.865659
v 0.484252 -0.136087 -1.694649
v -0.515748 -0.136087 -1.694649
v 0.609252 -2.094893 2.128487
v -0.640748 -2.094893 2.128487
v 0.609252 -1.444893 2.128487
v -0.640748 -1.444893 2.128487
v 0.609252 -2.094893 7.128486
v -0.640748 -2.094893 7.128486
v 0.609251 -1.444891 7.128487
v -0.640748 -1.444891 7.128487
v 1.025483 0.883344 -4.444794
v 0.981014 1.177947 -4.409701
v 1.260793 0.909291 -4.364446
v 1.216324 1.203894 -4.329352
v 0.722012 0.725600 -3.505102
v 0.677543 1.020203 -3.470009
v 0.957322 0.751547 -3.424753
v 0.912853 1.046150 -3.389660
v -0.949063 0.656675 -4.053709
v -1.068889 0.887200 -3.903708
v -0.727240 0.771979 -4.053708
v -0.847067 1.002503 -3.903708
v -0.776108 0.323942 -3.404190
v -0.895934 0.554466 -3.254189
v -0.554285 0.439245 -3.404190
v -0.674112 0.669770 -3.254189
v 0.316094 1.304526 -3.372318
v -1.014840 0.612706 -3.372318
v 0.316094 1.304526 -2.622318
v -1.014840 0.612706 -2.622318
v 1.007914 -0.026408 -3.372318
v -0.323020 -0.718228 -3.372318
v 1.007914 -0.026408 -2.622318
v -0.323020 -0.718228 -2.622318
v -0.344240 0.966702 -4.047128
v -0.464067 1.197226 -3.897128
v -0.078053 1.105066 -4.047128
v -0.197880 1.335590 -3.897128
v -0.171285 0.633968 -3.397608
v -0.291112 0.864493 -3.247609
v 0.094902 0.772332 -3.397609
v -0.024925 1.002857 -3.247608
v 0.529688 0.609768 -3.444835
v -0.579424 0.033252 -3.444835
v 0.529688 0.609768 -3.244835
v -0.579424 0.033252 -3.244835
v 0.806416 0.077395 -3.444835
v -0.302696 -0.499122 -3.444835
v 0.806416 0.077395 -3.244835
v -0.302696 -0.499122 -3.244835
v -0.644255 0.821472 -4.057189
v -0.764081 1.051997 -3.907189
v -0.422432 0.936775 -4.057189
v -0.542259 1.167300 -3.907188
v -0.471300 0.488739 -3.407670
v -0.591126 0.719263 -3.257669
v -0.249477 0.604042 -3.407669
v -0.369304 0.834566 -3.257670
v 0.221959 1.324435 -4.036987
v -0.044228 1.186070 -4.036987
v 0.122103 1.516538 -3.911987
v -0.144083 1.378174 -3.911987
v 0.394914 0.991701 -3.387468
v 0.128727 0.853337 -3.387468
v 0.295058 1.183805 -3.262468
v 0.028872 1.045441 -3.262468
v 1.066838 0.804305 -3.374182
v 0.682630 0.604594 -3.124182
v 0.940442 0.738604 -3.620916
v 0.556234 0.538893 -3.370916
v 0.896189 1.132602 -3.374182
v 0.511982 0.932891 -3.124182
v 0.769793 1.066901 -3.620916
v 0.385585 0.867190 -3.370916
v 0.130089 1.501176 -4.666976
v -0.136098 1.362812 -4.666976
v 0.021739 1.709621 -4.581470
v -0.244448 1.571257 -4.581470
v 0.248397 1.273573 -3.962206
v -0.017790 1.135209 -3.962207
v 0.140047 1.482018 -3.876701
v -0.126139 1.343654 -3.876701
v -0.433068 1.140074 -4.682823
v -0.563088 1.390208 -4.580217
v -0.166882 1.278438 -4.682824
v -0.296901 1.528572 -4.580217
v -0.314760 0.912471 -3.978054
v -0.444780 1.162605 -3.875448
v -0.048573 1.050835 -3.978054
v -0.178593 1.300969 -3.875448
v -0.727814 0.990000 -4.668222
v -0.857834 1.240134 -4.565616
v -0.505992 1.105303 -4.668222
v -0.636011 1.355437 -4.565616
v -0.609506 0.762397 -3.963453
v -0.739526 1.012531 -3.860847
v -0.387684 0.877700 -3.963453
v -0.517704 1.127834 -3.860847
v -1.037840 0.821427 -4.661777
v -1.167860 1.071561 -4.559171
v -0.816018 0.936730 -4.661777
v -0.946037 1.186864 -4.559170
v -0.919532 0.593824 -3.957007
v -1.049551 0.843957 -3.854401
v -0.697710 0.709127 -3.957007
v -0.827729 0.959261 -3.854401
v -0.667850 -2.300614 2.241940
v -0.667850 -1.360921 2.583960
v -0.667850 -0.556312 -2.550492
v -0.667850 0.383381 -2.208472
v 0.632150 -2.300614 2.241940
v 0.632150 -1.360921 2.583960
v 0.632150 -0.556312 -2.550492
v 0.632150 0.383381 -2.208472
v -0.667850 -2.356006 7.183190
v -0.667850 -1.156006 7.183190
v -0.667850 -2.356006 2.083191
v -0.667850 -1.156006 2.083191
v 0.632150 -2.356006 7.183190
v 0.632150 -1.156006 7.183190
v 0.632150 -2.356006 2.083191
v 0.632150 -1.156006 2.083191
vn -0.0000 0.3420 -0.9397
vn -0.0000 0.9397 0.3420
vn -0.0000 -0.3420 0.9397
vn -0.0000 -0.9397 -0.3420
vn 1.0000 -0.0000 -0.0000
vn -1.0000 -0.0000 -0.0000
vn -0.0000 -0.0000 -1.0000
vn -0.0000 1.0000 -0.0000
vn -0.0000 -0.0000 1.0000
vn -0.0000 -1.0000 -0.0000
vn 0.3035 0.1577 -0.9397
vn 0.9412 0.1038 0.3214
vn -0.3035 -0.1577 0.9397
vn -0.9412 -0.1038 -0.3214
vn 0.1482 -0.9820 -0.1170
vn -0.1482 0.9820 0.1170
vn -0.2306 0.4436 -0.8660
vn 0.8873 0.4612 -0.0000
vn 0.2306 -0.4436 0.8660
vn -0.8873 -0.4612 -0.0000
vn 0.3994 -0.7684 -0.5000
vn -0.3994 0.7684 0.5000
vn -0.4612 0.8873 -0.0000
vn 0.4612 -0.8873 -0.0000
vn -0.4436 -0.2306 -0.8660
vn 0.4436 0.2306 0.8660
vn 0.7684 0.3994 -0.5000
vn -0.7684 -0.3994 0.5000
vn -0.1577 0.3035 -0.9397
vn -0.4334 0.8338 0.3420
vn 0.1577 -0.3035 0.9397
vn 0.4334 -0.8338 -0.3420
vt 0.375000 0.000000
vt 0.625000 0.000000
vt 0.625000 0.250000
vt 0.375000 0.250000
vt 0.625000 0.500000
vt 0.375000 0.500000
vt 0.625000 0.750000
vt 0.375000 0.750000
vt 0.625000 1.000000
vt 0.375000 1.000000
vt 0.125000 0.500000
vt 0.125000 0.750000
vt 0.875000 0.500000
vt 0.875000 0.750000
s 1
usemtl Material.015
f 1/1/1 2/2/1 4/3/1 3/4/1
f 3/4/2 4/3/2 8/5/2 7/6/2
f 7/6/3 8/5/3 6/7/3 5/8/3
f 5/8/4 6/7/4 2/9/4 1/10/4
f 3/11/5 7/6/5 5/8/5 1/12/5
f 8/5/6 4/13/6 2/14/6 6/7/6
usemtl Material.010
f 9/1/1 10/2/1 12/3/1 11/4/1
f 11/4/2 12/3/2 16/5/2 15/6/2
f 15/6/3 16/5/3 14/7/3 13/8/3
f 13/8/4 14/7/4 10/9/4 9/10/4
f 11/11/5 15/6/5 13/8/5 9/12/5
f 16/5/6 12/13/6 10/14/6 14/7/6
usemtl Material.011
f 17/1/7 18/2/7 20/3/7 19/4/7
f 19/4/8 20/3/8 24/5/8 23/6/8
f 23/6/9 24/5/9 22/7/9 21/8/9
f 21/8/10 22/7/10 18/9/10 17/10/10
f 19/11/5 23/6/5 21/8/5 17/12/5
f 24/5/6 20/13/6 18/14/6 22/7/6
usemtl Material.012
f 25/1/11 26/2/11 28/3/11 27/4/11
f 27/4/12 28/3/12 32/5/12 31/6/12
f 31/6/13 32/5/13 30/7/13 29/8/13
f 29/8/14 30/7/14 26/9/14 25/10/14
f 27/11/15 31/6/15 29/8/15 25/12/15
f 32/5/16 28/13/16 26/14/16 30/7/16
usemtl Material.013
f 33/1/17 34/2/17 36/3/17 35/4/17
f 35/4/18 36/3/18 40/5/18 39/6/18
f 39/6/19 40/5/19 38/7/19 37/8/19
f 37/8/20 38/7/20 34/9/20 33/10/20
f 35/11/21 39/6/21 37/8/21 33/12/21
f 40/5/22 36/13/22 34/14/22 38/7/22
usemtl Material.014
f 41/1/23 42/2/23 44/3/23 43/4/23
f 43/4/9 44/3/9 48/5/9 47/6/9
f 47/6/24 48/5/24 46/7/24 45/8/24
f 45/8/7 46/7/7 42/9/7 41/10/7
f 43/11/18 47/6/18 45/8/18 41/12/18
f 48/5/20 44/13/20 42/14/20 46/7/20
usemtl Material.017
f 49/1/17 50/2/17 52/3/17 51/4/17
f 51/4/18 52/3/18 56/5/18 55/6/18
f 55/6/19 56/5/19 54/7/19 53/8/19
f 53/8/20 54/7/20 50/9/20 49/10/20
f 51/11/21 55/6/21 53/8/21 49/12/21
f 56/5/22 52/13/22 50/14/22 54/7/22
usemtl Material.019
f 57/1/23 58/2/23 60/3/23 59/4/23
f 59/4/9 60/3/9 64/5/9 63/6/9
f 63/6/24 64/5/24 62/7/24 61/8/24
f 61/8/7 62/7/7 58/9/7 57/10/7
f 59/11/18 63/6/18 61/8/18 57/12/18
f 64/5/20 60/13/20 58/14/20 62/7/20
usemtl Material.020
f 65/1/17 66/2/17 68/3/17 67/4/17
f 67/4/18 68/3/18 72/5/18 71/6/18
f 71/6/19 72/5/19 70/7/19 69/8/19
f 69/8/20 70/7/20 66/9/20 65/10/20
f 67/11/21 71/6/21 69/8/21 65/12/21
f 72/5/22 68/13/22 66/14/22 70/7/22
usemtl Material.025
f 73/1/17 74/2/17 76/3/17 75/4/17
f 75/4/22 76/3/22 80/5/22 79/6/22
f 79/6/19 80/5/19 78/7/19 77/8/19
f 77/8/21 78/7/21 74/9/21 73/10/21
f 75/11/18 79/6/18 77/8/18 73/12/18
f 80/5/20 76/13/20 74/14/20 78/7/20
usemtl Material.026
f 81/1/24 82/2/24 84/3/24 83/4/24
f 83/4/25 84/3/25 88/5/25 87/6/25
f 87/6/23 88/5/23 86/7/23 85/8/23
f 85/8/26 86/7/26 82/9/26 81/10/26
f 83/11/27 87/6/27 85/8/27 81/12/27
f 88/5/28 84/13/28 82/14/28 86/7/28
usemtl Material.027
f 89/1/29 90/2/29 92/3/29 91/4/29
f 91/4/30 92/3/30 96/5/30 95/6/30
f 95/6/31 96/5/31 94/7/31 93/8/31
f 93/8/32 94/7/32 90/9/32 89/10/32
f 91/11/18 95/6/18 93/8/18 89/12/18
f 96/5/20 92/13/20 90/14/20 94/7/20
usemtl Material.028
f 97/1/29 98/2/29 100/3/29 99/4/29
f 99/4/18 100/3/18 104/5/18 103/6/18
f 103/6/31 104/5/31 102/7/31 101/8/31
f 101/8/20 102/7/20 98/9/20 97/10/20
f 99/11/32 103/6/32 101/8/32 97/12/32
f 104/5/30 100/13/30 98/14/30 102/7/30
usemtl Material.029
f 105/1/29 106/2/29 108/3/29 107/4/29
f 107/4/18 108/3/18 112/5/18 111/6/18
f 111/6/31 112/5/31 110/7/31 109/8/31
f 109/8/20 110/7/20 106/9/20 105/10/20
f 107/11/32 111/6/32 109/8/32 105/12/32
f 112/5/30 108/13/30 106/14/30 110/7/30
usemtl Material.030
f 113/1/29 114/2/29 116/3/29 115/4/29
f 115/4/18 116/3/18 120/5/18 119/6/18
f 119/6/31 120/5/31 118/7/31 117/8/31
f 117/8/20 118/7/20 114/9/20 113/10/20
f 115/11/32 119/6/32 117/8/32 113/12/32
f 120/5/30 116/13/30 114/14/30 118/7/30
s 0
usemtl Material.031
f 121/1/6 122/2/6 124/3/6 123/4/6
f 123/4/1 124/3/1 128/5/1 127/6/1
f 127/6/5 128/5/5 126/7/5 125/8/5
f 125/8/3 126/7/3 122/9/3 121/10/3
f 123/11/4 127/6/4 125/8/4 121/12/4
f 128/5/2 124/13/2 122/14/2 126/7/2
usemtl Material.032
f 129/1/6 130/2/6 132/3/6 131/4/6
f 131/4/7 132/3/7 136/5/7 135/6/7
f 135/6/5 136/5/5 134/7/5 133/8/5
f 133/8/9 134/7/9 130/9/9 129/10/9
f 131/11/10 135/6/10 133/8/10 129/12/10
f 136/5/8 132/13/8 130/14/8 134/7/8
