# Blender 4.2.0
# www.blender.org
mtllib demonBoss.mtl
o Cube.013
v -0.400000 4.284753 -0.978260
v -0.400000 5.034753 -0.978260
v -0.400000 4.284753 -1.728260
v -0.400000 5.034753 -1.728260
v 0.400000 4.284753 -0.978260
v 0.400000 5.034753 -0.978260
v 0.400000 4.284753 -1.728260
v 0.400000 5.034753 -1.728260
v 0.232823 5.448622 0.250000
v 0.482823 5.881635 0.250000
v 0.232823 5.448622 -0.250000
v 0.482823 5.881635 -0.250000
v 0.612357 5.806849 0.250000
v 0.612357 5.806849 -0.250000
v 0.752438 5.148622 0.126788
v 0.548655 5.266276 0.250000
v 0.715576 5.555393 0.250000
v 0.828484 5.280337 0.126788
v 0.507090 5.290274 -0.250000
v 0.752438 5.148622 -0.101657
v 0.828484 5.280337 -0.101657
v 0.692547 5.611495 -0.250000
v -0.500000 5.215128 0.500000
v -0.500000 6.215128 0.500000
v -0.500000 5.215128 -0.500000
v -0.500000 6.215128 -0.500000
v 0.500000 5.215128 0.500000
v 0.500000 6.215128 0.500000
v 0.500000 5.215128 -0.500000
v 0.500000 6.215128 -0.500000
v 0.450000 5.917151 -0.106468
v 0.450000 6.017152 -0.106468
v 0.450000 5.917151 -0.406468
v 0.450000 6.017152 -0.406468
v 0.550000 5.917151 -0.106468
v 0.550000 6.017152 -0.106468
v 0.550000 5.917151 -0.406468
v 0.550000 6.017152 -0.406468
v 0.450000 5.917151 0.406468
v 0.450000 6.017152 0.406468
v 0.450000 5.917151 0.106468
v 0.450000 6.017152 0.106468
v 0.550000 5.917151 0.406468
v 0.550000 6.017152 0.406468
v 0.550000 5.917151 0.106468
v 0.550000 6.017152 0.106468
v 0.033715 6.231303 0.768376
v 0.033715 6.447809 0.643376
v 0.033715 5.981303 0.335364
v 0.033715 6.197809 0.210364
v 0.383715 6.231303 0.768376
v 0.383715 6.447809 0.643376
v 0.383715 5.981303 0.335364
v 0.383715 6.197809 0.210364
v 0.028715 5.794873 0.695485
v 0.028715 5.944873 0.955293
v 0.028715 6.227885 0.445485
v 0.028715 6.377886 0.705293
v 0.388715 5.794873 0.695485
v 0.388715 5.944873 0.955293
v 0.388715 6.227885 0.445485
v 0.388715 6.377886 0.705293
v 0.207624 6.009573 0.672466
v 0.207624 6.009573 0.922466
v 0.640636 5.759573 0.672466
v 0.082623 5.793067 0.672466
v 0.082623 5.793067 0.922466
v 0.515636 5.543067 0.672466
v 0.207624 6.009573 0.922466
v 0.640636 5.759573 0.672466
v 0.515636 5.543067 0.672466
v 0.082623 5.793067 0.922466
v 0.028715 6.227885 -0.445485
v 0.028715 6.377886 -0.705293
v 0.028715 5.794873 -0.695485
v 0.028715 5.944873 -0.955293
v 0.388715 6.227885 -0.445485
v 0.388715 6.377886 -0.705293
v 0.388715 5.794873 -0.695485
v 0.388715 5.944873 -0.955293
v 0.207624 6.009573 -0.922466
v 0.207624 6.009573 -0.672466
v 0.640636 5.759573 -0.672466
v 0.082623 5.793067 -0.922466
v 0.082623 5.793067 -0.672466
v 0.515636 5.543067 -0.672466
v 0.640636 5.759573 -0.672466
v 0.207624 6.009573 -0.922466
v 0.082623 5.793067 -0.922466
v 0.515636 5.543067 -0.672466
v -0.300000 4.829341 0.300000
v -0.300000 5.329341 0.300000
v -0.300000 4.829341 -0.300000
v -0.300000 5.329341 -0.300000
v 0.300000 4.829341 0.300000
v 0.300000 5.329341 0.300000
v 0.300000 4.829341 -0.300000
v 0.300000 5.329341 -0.300000
v -0.375000 3.625745 1.000000
v -0.375000 4.833475 1.000000
v -0.375000 3.625745 -1.000000
v -0.375000 4.833475 -1.000000
v 0.375000 3.625745 1.000000
v 0.375000 4.833475 1.000000
v 0.375000 3.625745 -1.000000
v 0.375000 4.833475 -1.000000
v -0.300000 2.526095 0.750000
v -0.300000 3.733825 0.750000
v -0.300000 2.526095 -0.750000
v -0.300000 3.733825 -0.750000
v 0.300000 2.526095 0.750000
v 0.300000 3.733825 0.750000
v 0.300000 2.526095 -0.750000
v 0.300000 3.733825 -0.750000
v -0.400000 4.284753 1.728258
v -0.400000 5.034753 1.728258
v -0.400000 4.284753 0.978258
v -0.400000 5.034753 0.978258
v 0.400000 4.284753 1.728258
v 0.400000 5.034753 1.728258
v 0.400000 4.284753 0.978258
v 0.400000 5.034753 0.978258
v -1.178985 0.032121 0.875000
v -1.178985 0.032121 -0.875000
v 0.321015 0.032121 0.875000
v 0.321015 2.532120 0.875000
v 0.321015 0.032121 -0.875000
v 0.321015 2.532120 -0.875000
v -0.310194 2.532120 0.875000
v -0.310194 2.532120 -0.875000
v -0.310194 2.532120 0.875000
v -1.178985 0.032121 0.875000
v -1.178985 0.032121 -0.875000
v -0.310194 2.532120 -0.875000
v 0.033715 5.981303 -0.335364
v 0.033715 6.197809 -0.210364
v 0.033715 6.231303 -0.768376
v 0.033715 6.447809 -0.643376
v 0.383715 5.981303 -0.335364
v 0.383715 6.197809 -0.210364
v 0.383715 6.231303 -0.768376
v 0.383715 6.447809 -0.643376
v 0.753362 5.150312 0.104884
v 0.828362 5.280216 0.104884
v 0.753362 5.150312 -0.075116
v 0.828362 5.280216 -0.075116
v 0.796663 5.125312 0.104884
v 0.871663 5.255216 0.104884
v 0.796663 5.125312 -0.075116
v 0.871663 5.255216 -0.075116
vn -1.0000 -0.0000 -0.0000
vn -0.0000 -0.0000 -1.0000
vn 1.0000 -0.0000 -0.0000
vn -0.0000 -0.0000 1.0000
vn -0.0000 -1.0000 -0.0000
vn -0.0000 1.0000 -0.0000
vn -0.8660 0.5000 -0.0000
vn 0.8660 -0.5000 -0.0000
vn 0.5000 0.8660 -0.0000
vn 0.4017 -0.2319 0.8859
vn 0.9251 0.3797 -0.0000
vn 0.4017 -0.2319 -0.8859
vn -0.5000 -0.8660 -0.0000
vn -0.0000 -0.5000 -0.8660
vn -0.0000 0.5000 0.8660
vn -0.0000 -0.8660 0.5000
vn -0.0000 0.8660 -0.5000
vn 0.3873 -0.2236 0.8944
vn -0.0000 -0.8660 -0.5000
vn -0.0000 0.8660 0.5000
vn -0.0000 -0.5000 0.8660
vn -0.0000 0.5000 -0.8660
vn 0.3873 -0.2236 -0.8944
vn -0.9446 0.3283 -0.0000
vt 0.375000 0.000000
vt 0.625000 0.000000
vt 0.625000 0.250000
vt 0.375000 0.250000
vt 0.625000 0.500000
vt 0.375000 0.500000
vt 0.625000 0.750000
vt 0.375000 0.750000
vt 0.625000 1.000000
vt 0.375000 1.000000
vt 0.125000 0.500000
vt 0.125000 0.750000
vt 0.875000 0.500000
vt 0.875000 0.750000
vt 0.375000 0.574171
vt 0.451046 0.574171
vt 0.451046 0.688394
vt 0.375000 0.688394
vt 0.375000 0.848045
vt 0.541921 0.848045
vt 0.625000 0.937678
vt 0.625000 0.312322
vt 0.560457 0.381957
vt 0.375000 0.381957
vt 0.812678 0.500000
vt 0.812678 0.750000
vt 0.639967 0.750000
vt 0.678500 0.500000
vt 0.256957 0.500000
vt 0.375000 0.688394
vt 0.276955 0.750000
vt 0.730201 0.500000
vt 0.730202 0.750000
vt 0.625000 0.394798
vt 0.625000 0.855202
s 0
usemtl Material.004
f 1/1/1 2/2/1 4/3/1 3/4/1
f 3/4/2 4/3/2 8/5/2 7/6/2
f 7/6/3 8/5/3 6/7/3 5/8/3
f 5/8/4 6/7/4 2/9/4 1/10/4
f 3/11/5 7/6/5 5/8/5 1/12/5
f 8/5/6 4/13/6 2/14/6 6/7/6
usemtl Material.006
f 9/1/7 10/2/7 12/3/7 11/4/7
f 20/15/8 21/16/8 18/17/8 15/18/8
f 16/19/4 17/20/4 13/21/4 10/9/4 9/10/4
f 11/4/2 12/3/2 14/22/2 22/23/2 19/24/2
f 14/25/9 12/13/9 10/14/9 13/26/9
f 17/20/10 16/19/10 15/18/10 18/17/10
f 14/25/11 13/26/11 17/27/11 18/17/11 21/16/11 22/28/11
f 19/24/12 22/23/12 21/16/12 20/15/12
f 11/11/13 19/29/13 20/15/13 15/30/13 16/31/13 9/12/13
usemtl Material.005
f 23/1/1 24/2/1 26/3/1 25/4/1
f 25/4/2 26/3/2 30/5/2 29/6/2
f 29/6/3 30/5/3 28/7/3 27/8/3
f 27/8/4 28/7/4 24/9/4 23/10/4
f 25/11/5 29/6/5 27/8/5 23/12/5
f 30/5/6 26/13/6 24/14/6 28/7/6
usemtl Material.016
f 31/1/1 32/2/1 34/3/1 33/4/1
f 33/4/2 34/3/2 38/5/2 37/6/2
f 37/6/3 38/5/3 36/7/3 35/8/3
f 35/8/4 36/7/4 32/9/4 31/10/4
f 33/11/5 37/6/5 35/8/5 31/12/5
f 38/5/6 34/13/6 32/14/6 36/7/6
usemtl Material.009
f 39/1/1 40/2/1 42/3/1 41/4/1
f 41/4/2 42/3/2 46/5/2 45/6/2
f 45/6/3 46/5/3 44/7/3 43/8/3
f 43/8/4 44/7/4 40/9/4 39/10/4
f 41/11/5 45/6/5 43/8/5 39/12/5
f 46/5/6 42/13/6 40/14/6 44/7/6
usemtl Material.011
f 47/1/1 48/2/1 50/3/1 49/4/1
f 49/4/14 50/3/14 54/5/14 53/6/14
f 53/6/3 54/5/3 52/7/3 51/8/3
f 51/8/15 52/7/15 48/9/15 47/10/15
f 49/11/16 53/6/16 51/8/16 47/12/16
f 54/5/17 50/13/17 48/14/17 52/7/17
usemtl Material.014
f 55/1/1 56/2/1 58/3/1 57/4/1
f 57/4/17 58/3/17 62/5/17 61/6/17
f 61/6/3 62/5/3 60/7/3 59/8/3
f 59/8/16 60/7/16 56/9/16 55/10/16
f 57/11/14 61/6/14 59/8/14 55/12/14
f 62/5/15 58/13/15 56/14/15 60/7/15
usemtl Material.015
f 65/4/6 70/4/6 71/6/6 68/6/6
f 68/6/13 71/6/13 72/7/13 67/7/13 66/8/13
f 66/8/7 67/7/7 64/9/7 63/10/7
f 65/11/2 68/6/2 66/8/2 63/12/2
f 63/1/9 64/2/9 69/2/9 70/4/9 65/4/9
f 69/3/18 72/5/18 71/6/18 70/4/18
f 72/7/6 69/14/6 64/14/6 67/7/6
usemtl Material.010
f 73/1/1 74/2/1 76/3/1 75/4/1
f 75/4/19 76/3/19 80/5/19 79/6/19
f 79/6/3 80/5/3 78/7/3 77/8/3
f 77/8/20 78/7/20 74/9/20 73/10/20
f 75/11/21 79/6/21 77/8/21 73/12/21
f 80/5/22 76/13/22 74/14/22 78/7/22
usemtl Material.012
f 87/3/6 83/3/6 86/5/6 90/5/6
f 89/8/13 90/5/13 86/5/13 85/7/13 84/8/13
f 84/8/7 85/7/7 82/9/7 81/10/7
f 81/1/9 82/2/9 83/3/9 87/3/9 88/1/9
f 86/5/4 83/13/4 82/14/4 85/7/4
f 89/8/23 88/12/23 87/11/23 90/6/23
f 88/12/6 89/8/6 84/8/6 81/12/6
usemtl Material.008
f 91/1/1 92/2/1 94/3/1 93/4/1
f 93/4/2 94/3/2 98/5/2 97/6/2
f 97/6/3 98/5/3 96/7/3 95/8/3
f 95/8/4 96/7/4 92/9/4 91/10/4
f 93/11/5 97/6/5 95/8/5 91/12/5
f 98/5/6 94/13/6 92/14/6 96/7/6
usemtl Material.003
f 99/1/1 100/2/1 102/3/1 101/4/1
f 101/4/2 102/3/2 106/5/2 105/6/2
f 105/6/3 106/5/3 104/7/3 103/8/3
f 103/8/4 104/7/4 100/9/4 99/10/4
f 101/11/5 105/6/5 103/8/5 99/12/5
f 106/5/6 102/13/6 100/14/6 104/7/6
usemtl Material.002
f 107/1/1 108/2/1 110/3/1 109/4/1
f 109/4/2 110/3/2 114/5/2 113/6/2
f 113/6/3 114/5/3 112/7/3 111/8/3
f 111/8/4 112/7/4 108/9/4 107/10/4
f 109/11/5 113/6/5 111/8/5 107/12/5
f 114/5/6 110/13/6 108/14/6 112/7/6
usemtl Material.007
f 115/1/1 116/2/1 118/3/1 117/4/1
f 117/4/2 118/3/2 122/5/2 121/6/2
f 121/6/3 122/5/3 120/7/3 119/8/3
f 119/8/4 120/7/4 116/9/4 115/10/4
f 117/11/5 121/6/5 119/8/5 115/12/5
f 122/5/6 118/13/6 116/14/6 120/7/6
usemtl Material.001
f 128/5/6 130/32/6 129/33/6 126/7/6
f 127/6/3 128/5/3 126/7/3 125/8/3
f 124/4/2 133/4/2 134/34/2 130/34/2 128/5/2 127/6/2
f 124/11/5 127/6/5 125/8/5 123/12/5
f 123/1/6 132/1/6 133/4/6 124/4/6
f 129/2/6 130/3/6 134/3/6 131/2/6
f 133/4/24 132/1/24 131/2/24 134/3/24
f 125/8/4 126/7/4 129/35/4 131/35/4 132/10/4 123/10/4
usemtl Material.017
f 135/1/1 136/2/1 138/3/1 137/4/1
f 137/4/22 138/3/22 142/5/22 141/6/22
f 141/6/3 142/5/3 140/7/3 139/8/3
f 139/8/21 140/7/21 136/9/21 135/10/21
f 137/11/19 141/6/19 139/8/19 135/12/19
f 142/5/20 138/13/20 136/14/20 140/7/20
usemtl Material.018
f 143/1/7 144/2/7 146/3/7 145/4/7
f 145/4/2 146/3/2 150/5/2 149/6/2
f 149/6/8 150/5/8 148/7/8 147/8/8
f 147/8/4 148/7/4 144/9/4 143/10/4
f 145/11/13 149/6/13 147/8/13 143/12/13
f 150/5/9 146/13/9 144/14/9 148/7/9
