# Blender 4.2.0
# www.blender.org
mtllib demon.mtl
o Cube.005
v -0.175000 1.900000 0.375000
v -0.175000 2.400000 0.375000
v -0.175000 1.900000 -0.375000
v -0.175000 2.400000 -0.375000
v 0.575000 1.900000 0.375000
v 0.575000 2.400000 0.375000
v 0.575000 1.900000 -0.375000
v 0.575000 2.400000 -0.375000
v 0.500000 -0.500000 0.500000
v 0.154074 0.500000 0.265994
v 0.500000 -0.500000 -0.500000
v 0.154074 0.500000 -0.259805
v -0.500000 -0.500000 0.500000
v -0.234563 0.500000 0.265994
v -0.500000 -0.500000 -0.500000
v -0.234563 0.500000 -0.259805
v -0.250000 1.500000 -0.250000
v -0.250000 0.500000 -0.250000
v -0.250000 1.500000 0.250000
v -0.250000 0.500000 0.250000
v 0.250000 1.500000 -0.250000
v 0.154822 0.500000 -0.250000
v 0.250000 1.500000 0.250000
v 0.154822 0.500000 0.250000
v -0.500000 2.500000 -0.500000
v -0.500000 1.500000 -0.500000
v -0.500000 2.500000 0.500000
v -0.500000 1.500000 0.500000
v 0.500000 2.500000 -0.500000
v 0.500000 1.500000 -0.500000
v 0.500000 2.500000 0.500000
v 0.500000 1.500000 0.500000
v -0.300000 1.075000 0.495000
v -0.300000 1.325000 0.495000
v -0.300000 1.075000 0.245000
v -0.300000 1.325000 0.245000
v 0.900000 1.075000 0.495000
v 0.900000 1.325000 0.495000
v 0.900000 1.075000 0.245000
v 0.900000 1.325000 0.245000
v -0.300000 1.075000 -0.245000
v -0.300000 1.325000 -0.245000
v -0.300000 1.075000 -0.495000
v -0.300000 1.325000 -0.495000
v 0.900000 1.075000 -0.245000
v 0.900000 1.325000 -0.245000
v 0.900000 1.075000 -0.495000
v 0.900000 1.325000 -0.495000
v 0.350000 1.900000 -0.250000
v 0.350000 1.700000 -0.250000
v 0.350000 1.900000 -0.150000
v 0.350000 1.700000 -0.150000
v 0.550000 1.900000 -0.250000
v 0.550000 1.700000 -0.250000
v 0.550000 1.900000 -0.150000
v 0.550000 1.700000 -0.150000
v 0.350000 1.900000 0.150000
v 0.350000 1.700000 0.150000
v 0.350000 1.900000 0.250000
v 0.350000 1.700000 0.250000
v 0.550000 1.900000 0.150000
v 0.550000 1.700000 0.150000
v 0.550000 1.900000 0.250000
v 0.550000 1.700000 0.250000
v 0.350000 1.900000 -0.050000
v 0.350000 1.700000 -0.050000
v 0.350000 1.900000 0.050000
v 0.350000 1.700000 0.050000
v 0.550000 1.900000 -0.050000
v 0.550000 1.700000 -0.050000
v 0.550000 1.900000 0.050000
v 0.550000 1.700000 0.050000
v 0.400000 2.150000 0.100000
v 0.400000 2.150000 0.300000
v 0.400000 2.250000 0.100000
v 0.400000 2.250000 0.300000
v 0.600000 2.150000 0.100000
v 0.600000 2.150000 0.300000
v 0.600000 2.250000 0.100000
v 0.600000 2.250000 0.300000
v 0.350000 1.900000 -0.050000
v 0.350000 1.700000 -0.050000
v 0.350000 1.900000 0.050000
v 0.350000 1.700000 0.050000
v 0.550000 1.900000 -0.050000
v 0.550000 1.700000 -0.050000
v 0.550000 1.900000 0.050000
v 0.550000 1.700000 0.050000
v 0.400000 2.150000 -0.300000
v 0.400000 2.150000 -0.100000
v 0.400000 2.250000 -0.300000
v 0.400000 2.250000 -0.100000
v 0.600000 2.150000 -0.300000
v 0.600000 2.150000 -0.100000
v 0.600000 2.250000 -0.300000
v 0.600000 2.250000 -0.100000
vn -1.0000 -0.0000 -0.0000
vn -0.0000 -0.0000 -1.0000
vn 1.0000 -0.0000 -0.0000
vn -0.0000 -0.0000 1.0000
vn -0.0000 -1.0000 -0.0000
vn -0.0000 1.0000 -0.0000
vn -0.0000 0.2336 -0.9723
vn -0.9665 0.2566 -0.0000
vn 0.9451 0.3269 -0.0000
vn -0.0000 0.2279 0.9737
vn 0.9955 -0.0947 -0.0000
vt 0.375000 0.000000
vt 0.625000 0.000000
vt 0.625000 0.250000
vt 0.375000 0.250000
vt 0.625000 0.500000
vt 0.375000 0.500000
vt 0.625000 0.750000
vt 0.375000 0.750000
vt 0.625000 1.000000
vt 0.375000 1.000000
vt 0.125000 0.500000
vt 0.125000 0.750000
vt 0.875000 0.500000
vt 0.875000 0.750000
vt 0.331759 0.743578
vt 0.357452 0.895939
vt 0.370476 0.061093
vt 0.357452 0.314675
vt 0.208907 0.532741
vt 0.331759 0.495024
vt 0.208907 0.711714
s 0
usemtl Material.008
f 1/1/1 2/2/1 4/3/1 3/4/1
f 3/4/2 4/3/2 8/5/2 7/6/2
f 7/6/3 8/5/3 6/7/3 5/8/3
f 5/8/4 6/7/4 2/9/4 1/10/4
f 3/11/5 7/6/5 5/8/5 1/12/5
f 8/5/6 4/13/6 2/14/6 6/7/6
usemtl Material
f 9/5/5 13/13/5 15/14/5 11/7/5
f 12/15/7 11/7/7 15/9/7 16/16/7
f 16/17/8 15/2/8 13/3/8 14/18/8
f 14/19/6 10/20/6 12/15/6 16/21/6
f 10/20/9 9/5/9 11/7/9 12/15/9
f 14/18/10 13/3/10 9/5/10 10/20/10
usemtl Material.003
f 17/1/1 18/2/1 20/3/1 19/4/1
f 19/4/4 20/3/4 24/5/4 23/6/4
f 23/6/11 24/5/11 22/7/11 21/8/11
f 21/8/2 22/7/2 18/9/2 17/10/2
f 19/11/6 23/6/6 21/8/6 17/12/6
f 24/5/5 20/13/5 18/14/5 22/7/5
usemtl Material.002
f 25/1/1 26/2/1 28/3/1 27/4/1
f 27/4/4 28/3/4 32/5/4 31/6/4
f 31/6/3 32/5/3 30/7/3 29/8/3
f 29/8/2 30/7/2 26/9/2 25/10/2
f 27/11/6 31/6/6 29/8/6 25/12/6
f 32/5/5 28/13/5 26/14/5 30/7/5
usemtl Material.004
f 33/1/1 34/2/1 36/3/1 35/4/1
f 35/4/2 36/3/2 40/5/2 39/6/2
f 39/6/3 40/5/3 38/7/3 37/8/3
f 37/8/4 38/7/4 34/9/4 33/10/4
f 35/11/5 39/6/5 37/8/5 33/12/5
f 40/5/6 36/13/6 34/14/6 38/7/6
usemtl Material.005
f 41/1/1 42/2/1 44/3/1 43/4/1
f 43/4/2 44/3/2 48/5/2 47/6/2
f 47/6/3 48/5/3 46/7/3 45/8/3
f 45/8/4 46/7/4 42/9/4 41/10/4
f 43/11/5 47/6/5 45/8/5 41/12/5
f 48/5/6 44/13/6 42/14/6 46/7/6
usemtl Material.011
f 49/1/1 50/2/1 52/3/1 51/4/1
f 51/4/4 52/3/4 56/5/4 55/6/4
f 55/6/3 56/5/3 54/7/3 53/8/3
f 53/8/2 54/7/2 50/9/2 49/10/2
f 51/11/6 55/6/6 53/8/6 49/12/6
f 56/5/5 52/13/5 50/14/5 54/7/5
usemtl Material.009
f 57/1/1 58/2/1 60/3/1 59/4/1
f 59/4/4 60/3/4 64/5/4 63/6/4
f 63/6/3 64/5/3 62/7/3 61/8/3
f 61/8/2 62/7/2 58/9/2 57/10/2
f 59/11/6 63/6/6 61/8/6 57/12/6
f 64/5/5 60/13/5 58/14/5 62/7/5
usemtl Material.010
f 65/1/1 66/2/1 68/3/1 67/4/1
f 67/4/4 68/3/4 72/5/4 71/6/4
f 71/6/3 72/5/3 70/7/3 69/8/3
f 69/8/2 70/7/2 66/9/2 65/10/2
f 67/11/6 71/6/6 69/8/6 65/12/6
f 72/5/5 68/13/5 66/14/5 70/7/5
usemtl Material.006
f 73/1/1 74/2/1 76/3/1 75/4/1
f 75/4/6 76/3/6 80/5/6 79/6/6
f 79/6/3 80/5/3 78/7/3 77/8/3
f 77/8/5 78/7/5 74/9/5 73/10/5
f 75/11/2 79/6/2 77/8/2 73/12/2
f 80/5/4 76/13/4 74/14/4 78/7/4
usemtl Material.012
f 81/1/1 82/2/1 84/3/1 83/4/1
f 83/4/4 84/3/4 88/5/4 87/6/4
f 87/6/3 88/5/3 86/7/3 85/8/3
f 85/8/2 86/7/2 82/9/2 81/10/2
f 83/11/6 87/6/6 85/8/6 81/12/6
f 88/5/5 84/13/5 82/14/5 86/7/5
usemtl Material.007
f 89/1/1 90/2/1 92/3/1 91/4/1
f 91/4/6 92/3/6 96/5/6 95/6/6
f 95/6/3 96/5/3 94/7/3 93/8/3
f 93/8/5 94/7/5 90/9/5 89/10/5
f 91/11/2 95/6/2 93/8/2 89/12/2
f 96/5/4 92/13/4 90/14/4 94/7/4
