# Blender 4.2.0
# www.blender.org
mtllib heavyDemon.mtl
o Cube.002
v 0.346747 3.158688 -0.138311
v 0.346747 3.158688 -0.338311
v 0.746747 2.758688 -0.138311
v 0.746747 3.158688 -0.138311
v 0.746747 2.758688 -0.338311
v 0.746747 3.158688 -0.338311
v 0.346747 3.158688 -0.138311
v 0.449424 2.758688 -0.138311
v 0.449424 2.758688 -0.338311
v 0.346747 3.158688 -0.338311
v -0.210000 2.280000 0.525000
v -0.210000 2.880000 0.525000
v -0.210000 2.280000 -0.525000
v -0.210000 2.880000 -0.525000
v 0.690000 2.280000 0.525000
v 0.690000 2.880000 0.525000
v 0.690000 2.280000 -0.525000
v 0.690000 2.880000 -0.525000
v 0.600000 -0.600000 0.700000
v 0.184889 0.600000 0.372392
v 0.600000 -0.600000 -0.700000
v 0.184889 0.600000 -0.363727
v -0.600000 -0.600000 0.700000
v -0.281476 0.600000 0.372392
v -0.600000 -0.600000 -0.700000
v -0.281476 0.600000 -0.363727
v -0.300000 1.800000 -0.350000
v -0.300000 0.600000 -0.350000
v -0.300000 1.800000 0.350000
v -0.300000 0.600000 0.350000
v 0.300000 1.800000 -0.350000
v 0.185786 0.600000 -0.350000
v 0.300000 1.800000 0.350000
v 0.185786 0.600000 0.350000
v -0.600000 3.000000 -0.700000
v -0.600000 1.800000 -0.700000
v -0.600000 3.000000 0.700000
v -0.600000 1.800000 0.700000
v 0.600000 3.000000 -0.700000
v 0.600000 1.800000 -0.700000
v 0.600000 3.000000 0.700000
v 0.600000 1.800000 0.700000
v -0.360000 1.290000 0.693000
v -0.360000 1.590000 0.693000
v -0.360000 1.290000 0.343000
v -0.360000 1.590000 0.343000
v 1.080000 1.290000 0.693000
v 1.080000 1.590000 0.693000
v 1.080000 1.290000 0.343000
v 1.080000 1.590000 0.343000
v -0.360000 1.290000 -0.343000
v -0.360000 1.590000 -0.343000
v -0.360000 1.290000 -0.693000
v -0.360000 1.590000 -0.693000
v 1.080000 1.290000 -0.343000
v 1.080000 1.590000 -0.343000
v 1.080000 1.290000 -0.693000
v 1.080000 1.590000 -0.693000
v 0.420000 2.280000 -0.350000
v 0.420000 2.040000 -0.350000
v 0.420000 2.280000 -0.210000
v 0.420000 2.040000 -0.210000
v 0.660000 2.280000 -0.350000
v 0.660000 2.040000 -0.350000
v 0.660000 2.280000 -0.210000
v 0.660000 2.040000 -0.210000
v 0.420000 2.280000 0.210000
v 0.420000 2.040000 0.210000
v 0.420000 2.280000 0.350000
v 0.420000 2.040000 0.350000
v 0.660000 2.280000 0.210000
v 0.660000 2.040000 0.210000
v 0.660000 2.280000 0.350000
v 0.660000 2.040000 0.350000
v 0.420000 2.280000 -0.070000
v 0.420000 2.040000 -0.070000
v 0.420000 2.280000 0.070000
v 0.420000 2.040000 0.070000
v 0.660000 2.280000 -0.070000
v 0.660000 2.040000 -0.070000
v 0.660000 2.280000 0.070000
v 0.660000 2.040000 0.070000
v 0.480000 2.580000 0.140000
v 0.480000 2.580000 0.420000
v 0.480000 2.700000 0.140000
v 0.480000 2.700000 0.420000
v 0.720000 2.580000 0.140000
v 0.720000 2.580000 0.420000
v 0.720000 2.700000 0.140000
v 0.720000 2.700000 0.420000
v 0.420000 2.280000 -0.070000
v 0.420000 2.040000 -0.070000
v 0.420000 2.280000 0.070000
v 0.420000 2.040000 0.070000
v 0.660000 2.280000 -0.070000
v 0.660000 2.040000 -0.070000
v 0.660000 2.280000 0.070000
v 0.660000 2.040000 0.070000
v 0.480000 2.580000 -0.420000
v 0.480000 2.580000 -0.140000
v 0.480000 2.700000 -0.420000
v 0.480000 2.700000 -0.140000
v 0.720000 2.580000 -0.420000
v 0.720000 2.580000 -0.140000
v 0.720000 2.700000 -0.420000
v 0.720000 2.700000 -0.140000
v -0.400000 1.250000 -0.340000
v -0.400000 1.650000 -0.340000
v -0.400000 1.250000 -0.740000
v -0.400000 1.650000 -0.740000
v -0.100000 1.250000 -0.340000
v -0.100000 1.650000 -0.340000
v -0.100000 1.250000 -0.740000
v -0.100000 1.650000 -0.740000
v -0.400000 1.250000 0.740000
v -0.400000 1.650000 0.740000
v -0.400000 1.250000 0.340000
v -0.400000 1.650000 0.340000
v -0.100000 1.250000 0.740000
v -0.100000 1.650000 0.740000
v -0.100000 1.250000 0.340000
v -0.100000 1.650000 0.340000
v 0.346747 3.158688 0.338311
v 0.346747 3.158688 0.138311
v 0.746747 2.758688 0.338311
v 0.746747 3.158688 0.338311
v 0.746747 2.758688 0.138311
v 0.746747 3.158688 0.138311
v 0.346747 3.158688 0.338311
v 0.449424 2.758688 0.338311
v 0.449424 2.758688 0.138311
v 0.346747 3.158688 0.138311
vn -0.0000 -0.0000 1.0000
vn 1.0000 -0.0000 -0.0000
vn -0.0000 -0.0000 -1.0000
vn -0.0000 1.0000 -0.0000
vn -0.9686 -0.2486 -0.0000
vn -0.0000 -1.0000 -0.0000
vn -1.0000 -0.0000 -0.0000
vn -0.0000 0.2698 -0.9629
vn -0.9665 0.2566 -0.0000
vn 0.9451 0.3269 -0.0000
vn -0.0000 0.2634 0.9647
vn 0.9955 -0.0947 -0.0000
vt 0.375000 0.750000
vt 0.625000 0.750000
vt 0.625000 1.000000
vt 0.375000 0.935827
vt 0.375000 0.500000
vt 0.625000 0.500000
vt 0.375000 0.314173
vt 0.625000 0.250000
vt 0.625000 0.000000
vt 0.875000 0.500000
vt 0.875000 0.750000
vt 0.189173 0.500000
vt 0.189173 0.750000
vt 0.125000 0.750000
vt 0.125000 0.500000
vt 0.375000 0.000000
vt 0.375000 0.250000
vt 0.375000 1.000000
vt 0.331759 0.743578
vt 0.357452 0.895939
vt 0.370476 0.061093
vt 0.357452 0.314675
vt 0.208907 0.532741
vt 0.331759 0.495024
vt 0.208907 0.711714
s 0
usemtl Material.015
f 3/1/1 4/2/1 1/3/1 7/3/1 8/4/1
f 5/5/2 6/6/2 4/2/2 3/1/2
f 9/7/3 10/8/3 2/8/3 6/6/3 5/5/3
f 7/9/4 1/9/4 2/8/4 10/8/4
f 6/6/4 2/10/4 1/11/4 4/2/4
f 9/12/5 8/13/5 7/14/5 10/15/5
f 9/12/6 5/5/6 3/1/6 8/13/6
usemtl Material.008
f 11/16/7 12/9/7 14/8/7 13/17/7
f 13/17/3 14/8/3 18/6/3 17/5/3
f 17/5/2 18/6/2 16/2/2 15/1/2
f 15/1/1 16/2/1 12/3/1 11/18/1
f 13/15/6 17/5/6 15/1/6 11/14/6
f 18/6/4 14/10/4 12/11/4 16/2/4
usemtl Material.001
f 19/6/6 23/10/6 25/11/6 21/2/6
f 22/19/8 21/2/8 25/3/8 26/20/8
f 26/21/9 25/9/9 23/8/9 24/22/9
f 24/23/4 20/24/4 22/19/4 26/25/4
f 20/24/10 19/6/10 21/2/10 22/19/10
f 24/22/11 23/8/11 19/6/11 20/24/11
usemtl Material.003
f 27/16/7 28/9/7 30/8/7 29/17/7
f 29/17/1 30/8/1 34/6/1 33/5/1
f 33/5/12 34/6/12 32/2/12 31/1/12
f 31/1/3 32/2/3 28/3/3 27/18/3
f 29/15/4 33/5/4 31/1/4 27/14/4
f 34/6/6 30/10/6 28/11/6 32/2/6
usemtl Material.002
f 35/16/7 36/9/7 38/8/7 37/17/7
f 37/17/1 38/8/1 42/6/1 41/5/1
f 41/5/2 42/6/2 40/2/2 39/1/2
f 39/1/3 40/2/3 36/3/3 35/18/3
f 37/15/4 41/5/4 39/1/4 35/14/4
f 42/6/6 38/10/6 36/11/6 40/2/6
usemtl Material.004
f 43/16/7 44/9/7 46/8/7 45/17/7
f 45/17/3 46/8/3 50/6/3 49/5/3
f 49/5/2 50/6/2 48/2/2 47/1/2
f 47/1/1 48/2/1 44/3/1 43/18/1
f 45/15/6 49/5/6 47/1/6 43/14/6
f 50/6/4 46/10/4 44/11/4 48/2/4
usemtl Material.005
f 51/16/7 52/9/7 54/8/7 53/17/7
f 53/17/3 54/8/3 58/6/3 57/5/3
f 57/5/2 58/6/2 56/2/2 55/1/2
f 55/1/1 56/2/1 52/3/1 51/18/1
f 53/15/6 57/5/6 55/1/6 51/14/6
f 58/6/4 54/10/4 52/11/4 56/2/4
usemtl Material.011
f 59/16/7 60/9/7 62/8/7 61/17/7
f 61/17/1 62/8/1 66/6/1 65/5/1
f 65/5/2 66/6/2 64/2/2 63/1/2
f 63/1/3 64/2/3 60/3/3 59/18/3
f 61/15/4 65/5/4 63/1/4 59/14/4
f 66/6/6 62/10/6 60/11/6 64/2/6
usemtl Material.009
f 67/16/7 68/9/7 70/8/7 69/17/7
f 69/17/1 70/8/1 74/6/1 73/5/1
f 73/5/2 74/6/2 72/2/2 71/1/2
f 71/1/3 72/2/3 68/3/3 67/18/3
f 69/15/4 73/5/4 71/1/4 67/14/4
f 74/6/6 70/10/6 68/11/6 72/2/6
usemtl Material.010
f 75/16/7 76/9/7 78/8/7 77/17/7
f 77/17/1 78/8/1 82/6/1 81/5/1
f 81/5/2 82/6/2 80/2/2 79/1/2
f 79/1/3 80/2/3 76/3/3 75/18/3
f 77/15/4 81/5/4 79/1/4 75/14/4
f 82/6/6 78/10/6 76/11/6 80/2/6
usemtl Material.006
f 83/16/7 84/9/7 86/8/7 85/17/7
f 85/17/4 86/8/4 90/6/4 89/5/4
f 89/5/2 90/6/2 88/2/2 87/1/2
f 87/1/6 88/2/6 84/3/6 83/18/6
f 85/15/3 89/5/3 87/1/3 83/14/3
f 90/6/1 86/10/1 84/11/1 88/2/1
usemtl Material.012
f 91/16/7 92/9/7 94/8/7 93/17/7
f 93/17/1 94/8/1 98/6/1 97/5/1
f 97/5/2 98/6/2 96/2/2 95/1/2
f 95/1/3 96/2/3 92/3/3 91/18/3
f 93/15/4 97/5/4 95/1/4 91/14/4
f 98/6/6 94/10/6 92/11/6 96/2/6
usemtl Material.007
f 99/16/7 100/9/7 102/8/7 101/17/7
f 101/17/4 102/8/4 106/6/4 105/5/4
f 105/5/2 106/6/2 104/2/2 103/1/2
f 103/1/6 104/2/6 100/3/6 99/18/6
f 101/15/3 105/5/3 103/1/3 99/14/3
f 106/6/1 102/10/1 100/11/1 104/2/1
usemtl Material.014
f 107/16/7 108/9/7 110/8/7 109/17/7
f 109/17/3 110/8/3 114/6/3 113/5/3
f 113/5/2 114/6/2 112/2/2 111/1/2
f 111/1/1 112/2/1 108/3/1 107/18/1
f 109/15/6 113/5/6 111/1/6 107/14/6
f 114/6/4 110/10/4 108/11/4 112/2/4
usemtl Material.013
f 115/16/7 116/9/7 118/8/7 117/17/7
f 117/17/3 118/8/3 122/6/3 121/5/3
f 121/5/2 122/6/2 120/2/2 119/1/2
f 119/1/1 120/2/1 116/3/1 115/18/1
f 117/15/6 121/5/6 119/1/6 115/14/6
f 122/6/4 118/10/4 116/11/4 120/2/4
usemtl Material.016
f 125/1/1 126/2/1 123/3/1 129/3/1 130/4/1
f 127/5/2 128/6/2 126/2/2 125/1/2
f 131/7/3 132/8/3 124/8/3 128/6/3 127/5/3
f 129/9/4 123/9/4 124/8/4 132/8/4
f 128/6/4 124/10/4 123/11/4 126/2/4
f 131/12/5 130/13/5 129/14/5 132/15/5
f 131/12/6 127/5/6 125/1/6 130/13/6
